<svg id="Layer_1" data-name="Layer 1" xmlns="http://www.w3.org/2000/svg" viewBox="0 0 300 300"><defs><style>.cls-1{fill:#1b93d1;}.cls-2{fill:#80c142;}.cls-3{fill:#54565a;}</style></defs><title>-icon-color</title><path class="cls-1" d="M97.88,90.65,85.48,89l-4.22,32,12.39,1.63a74.69,74.69,0,0,0,6.84,25.59l-9.91,7.6,19.64,25.62,9.92-7.61a74.55,74.55,0,0,0,22.94,13.26l-1.63,12.39,32,4.22,1.64-12.39a74.48,74.48,0,0,0,25.59-6.85l7.61,9.93,25.61-19.64-7.6-9.93a75.2,75.2,0,0,0,13.25-22.93l12.4,1.62,4.22-32-12.4-1.63a74.36,74.36,0,0,0-6.85-25.59l9.93-7.6L227.19,51.1l-9.91,7.6a75.13,75.13,0,0,0-22.94-13.25L196,33.06l-32-4.23-1.64,12.4a74.65,74.65,0,0,0-25.61,6.85l-7.6-9.93L103.51,57.81l7.62,9.91A74.39,74.39,0,0,0,97.88,90.65m17.49,18.59a53.8,53.8,0,0,1,106.71,13.82l-.07.53a53.78,53.78,0,0,1-60.09,46.06l-.51-.07a53.8,53.8,0,0,1-46-60.34"/><path class="cls-2" d="M44.54,99.4H63.09V92.13l1.75-.43.29-.09A42.65,42.65,0,0,0,85.7,79.07L92,82.7l9.28-16.06L95,63a42.81,42.81,0,0,0,.6-24.09l-.09-.28c-.14-.6-.32-1.18-.51-1.74l6.32-3.65L92,17.19l-6.3,3.63a43.28,43.28,0,0,0-22.61-13V.5H44.54V7.77l-1.9.47A43.07,43.07,0,0,0,21.92,20.83l-6.29-3.64L6.35,33.24l6.31,3.66a43.21,43.21,0,0,0-.56,24.23c.17.62.36,1.25.55,1.87l-6.3,3.64L15.63,82.7l6.29-3.63A43.39,43.39,0,0,0,44.54,92.13ZM38.36,76.72A30.91,30.91,0,1,1,83.63,41.81l.07.29A30.9,30.9,0,0,1,62,79.76l-.29.08a30.84,30.84,0,0,1-23.31-3.12"/><path class="cls-3" d="M252.7,57.67v0c-.27,0-.55,0-.82,0H247.7l13.41,17.49a26.1,26.1,0,0,1,16.76,24.29V211.11a26.07,26.07,0,0,1-26,26h-28.6v30.54L183.19,237.1H85.52a26.06,26.06,0,0,1-26-26V204l.06-.06V109.78H43.74v3.27l.07.07v84.31l-.07.06v13.62a41.87,41.87,0,0,0,41.78,41.77h92.35l61.19,46.62V252.88H252.7a41.88,41.88,0,0,0,40.95-41.77V99.43A41.87,41.87,0,0,0,252.7,57.67"/></svg>